<svg width="63" height="58" viewBox="0 0 63 58" fill="none" xmlns="http://www.w3.org/2000/svg">
<path d="M31.5 0C14.112 0 0 12.992 0 29C0 45.008 14.112 58 31.5 58C48.888 58 63 45.008 63 29C63 12.992 48.888 0 31.5 0ZM31.5 8.7C36.729 8.7 40.95 12.586 40.95 17.4C40.95 22.214 36.729 26.1 31.5 26.1C26.271 26.1 22.05 22.214 22.05 17.4C22.05 12.586 26.271 8.7 31.5 8.7ZM31.5 49.88C23.625 49.88 16.6635 46.168 12.6 40.542C12.6945 34.771 25.2 31.61 31.5 31.61C37.7685 31.61 50.3055 34.771 50.4 40.542C46.3365 46.168 39.375 49.88 31.5 49.88Z" fill="black"/>
</svg>
