<svg width="36" height="37" viewBox="0 0 36 37" fill="none" xmlns="http://www.w3.org/2000/svg">
<path d="M18 0.976562C8.064 0.976562 0 9.0338 0 18.9615C0 28.8891 8.064 36.9464 18 36.9464C27.936 36.9464 36 28.8891 36 18.9615C36 9.0338 27.936 0.976562 18 0.976562ZM18 6.37204C20.988 6.37204 23.4 8.78201 23.4 11.7675C23.4 14.753 20.988 17.163 18 17.163C15.012 17.163 12.6 14.753 12.6 11.7675C12.6 8.78201 15.012 6.37204 18 6.37204ZM18 31.9106C13.5 31.9106 9.522 29.6085 7.2 26.1195C7.254 22.5405 14.4 20.5801 18 20.5801C21.582 20.5801 28.746 22.5405 28.8 26.1195C26.478 29.6085 22.5 31.9106 18 31.9106Z" fill="black"/>
</svg>
